<svg width="20" height="20" viewBox="0 0 20 20" fill="none" xmlns="http://www.w3.org/2000/svg">
<g clip-path="url(#clip0_480_227)">
<path d="M6.66634 10.8334C7.12658 10.8334 7.49967 10.4603 7.49967 10.0001C7.49967 9.53984 7.12658 9.16675 6.66634 9.16675C6.2061 9.16675 5.83301 9.53984 5.83301 10.0001C5.83301 10.4603 6.2061 10.8334 6.66634 10.8334Z" fill="#666666"/>
<path d="M9.99984 10.8334C10.4601 10.8334 10.8332 10.4603 10.8332 10.0001C10.8332 9.53984 10.4601 9.16675 9.99984 9.16675C9.5396 9.16675 9.1665 9.53984 9.1665 10.0001C9.1665 10.4603 9.5396 10.8334 9.99984 10.8334Z" fill="#666666"/>
<path d="M13.3333 10.8334C13.7936 10.8334 14.1667 10.4603 14.1667 10.0001C14.1667 9.53984 13.7936 9.16675 13.3333 9.16675C12.8731 9.16675 12.5 9.53984 12.5 10.0001C12.5 10.4603 12.8731 10.8334 13.3333 10.8334Z" fill="#666666"/>
<path d="M6.66634 14.1667C7.12658 14.1667 7.49967 13.7936 7.49967 13.3333C7.49967 12.8731 7.12658 12.5 6.66634 12.5C6.2061 12.5 5.83301 12.8731 5.83301 13.3333C5.83301 13.7936 6.2061 14.1667 6.66634 14.1667Z" fill="#666666"/>
<path d="M9.99984 14.1667C10.4601 14.1667 10.8332 13.7936 10.8332 13.3333C10.8332 12.8731 10.4601 12.5 9.99984 12.5C9.5396 12.5 9.1665 12.8731 9.1665 13.3333C9.1665 13.7936 9.5396 14.1667 9.99984 14.1667Z" fill="#666666"/>
<path d="M13.3333 14.1667C13.7936 14.1667 14.1667 13.7936 14.1667 13.3333C14.1667 12.8731 13.7936 12.5 13.3333 12.5C12.8731 12.5 12.5 12.8731 12.5 13.3333C12.5 13.7936 12.8731 14.1667 13.3333 14.1667Z" fill="#666666"/>
<path d="M16.6665 3.33337H13.7498V2.08337H12.9165V3.33337H7.08317V2.08337H6.24984V3.33337H3.33317C2.4165 3.33337 1.6665 4.08337 1.6665 5.00004V16.6667C1.6665 17.5834 2.4165 18.3334 3.33317 18.3334H16.6665C17.5832 18.3334 18.3332 17.5834 18.3332 16.6667V5.00004C18.3332 4.08337 17.5832 3.33337 16.6665 3.33337ZM17.4998 16.6667C17.4998 17.1263 17.1261 17.5 16.6665 17.5H3.33317C2.87359 17.5 2.49984 17.1263 2.49984 16.6667V5.00004C2.49984 4.54046 2.87359 4.16671 3.33317 4.16671H6.24984V6.25004H7.08317V4.16671H12.9165V6.25004H13.7498V4.16671H16.6665C17.1261 4.16671 17.4998 4.54046 17.4998 5.00004V16.6667Z" fill="#666666"/>
</g>
<defs>
<clipPath id="clip0_480_227">
<rect width="20" height="20" fill="white"/>
</clipPath>
</defs>
</svg>
