<svg width="10" height="18" viewBox="0 0 10 18" fill="none" xmlns="http://www.w3.org/2000/svg">
<path d="M6.2437 13.7745C6.2437 15.0847 6.23655 16.3949 6.25085 17.705C6.25085 17.9244 6.18648 18.0059 5.92186 17.9997C4.92773 17.9871 3.92645 17.9934 2.93232 17.9934C2.53896 17.9934 2.53896 17.9934 2.53896 17.6424C2.53896 15.0972 2.53896 12.5521 2.53896 10.0133C2.53896 9.48674 2.54611 9.5745 2.03832 9.56823C1.45186 9.56196 0.865392 9.56196 0.278928 9.56823C0.0643676 9.5745 0 9.50555 0 9.32375C0.007152 8.46494 0.007152 7.60612 0 6.74731C0 6.53417 0.100128 6.47775 0.32184 6.47775C0.951216 6.48402 1.58774 6.47148 2.21712 6.48402C2.48174 6.49029 2.54611 6.40253 2.54611 6.18939C2.54611 5.33058 2.53896 4.47176 2.57472 3.61295C2.63194 2.05203 3.70474 0.773215 5.45698 0.25918C6.25085 0.0272373 7.07333 -0.0229125 7.90296 0.00843113C8.4179 0.0272373 8.93285 0.0460436 9.44779 0.0648497C9.56938 0.0711185 9.70527 0.0711182 9.81254 0.114999C9.88406 0.140074 9.98419 0.234105 9.98419 0.296792C9.97704 1.13053 9.95558 1.96427 9.94128 2.79801C9.94128 2.96727 9.80539 2.98607 9.66951 2.98607C9.26184 2.98607 8.84702 2.96727 8.43936 2.97981C7.98163 2.99234 7.51675 2.99234 7.05902 3.0613C6.59414 3.13026 6.35813 3.39354 6.30806 3.80101C6.27946 4.05803 6.258 4.31504 6.258 4.56579C6.25085 5.12998 6.26515 5.68789 6.25085 6.25208C6.2437 6.44641 6.32237 6.49029 6.52978 6.49029C7.57397 6.48402 8.61101 6.49656 9.6552 6.48402C9.92698 6.48402 10.0128 6.55298 9.9985 6.79119C9.94843 7.6312 9.91982 8.47121 9.88406 9.31122C9.87691 9.50555 9.78394 9.5745 9.55507 9.5745C8.54664 9.56197 7.54536 9.5745 6.53693 9.56823C6.31522 9.56823 6.25085 9.62465 6.25085 9.81898C6.2437 11.1354 6.2437 12.4518 6.2437 13.7745Z" fill="black"/>
</svg>
