<svg width="18" height="18" viewBox="0 0 18 18" fill="none" xmlns="http://www.w3.org/2000/svg">
<path d="M8.98504 1.61962C11.384 1.61962 11.6672 1.62809 12.6141 1.67255C13.4892 1.71277 13.9647 1.85886 14.2818 1.98165C14.7003 2.14467 15.0004 2.33945 15.3154 2.6549C15.6303 2.97036 15.8247 3.26888 15.9875 3.69019C16.1101 4.00776 16.2559 4.48412 16.2961 5.36062C16.3383 6.3091 16.3489 6.59492 16.3489 8.99576C16.3489 11.3966 16.3405 11.6824 16.2961 12.6309C16.2559 13.5074 16.1101 13.9838 15.9875 14.3013C15.8247 14.7205 15.6303 15.0212 15.3154 15.3366C15.0004 15.6521 14.7024 15.8469 14.2818 16.0099C13.9647 16.1327 13.4892 16.2788 12.6141 16.319C11.6672 16.3613 11.384 16.3719 8.98504 16.3719C6.58607 16.3719 6.30284 16.3634 5.35593 16.319C4.48089 16.2788 4.00532 16.1327 3.68828 16.0099C3.26978 15.8469 2.96965 15.6521 2.65472 15.3366C2.33979 15.0212 2.14533 14.7227 1.98258 14.3013C1.85999 13.9838 1.71415 13.5074 1.67399 12.6309C1.63172 11.6824 1.62115 11.3966 1.62115 8.99576C1.62115 6.59492 1.6296 6.3091 1.67399 5.36062C1.71415 4.48412 1.85999 4.00776 1.98258 3.69019C2.14533 3.27099 2.33979 2.97036 2.65472 2.6549C2.96965 2.33945 3.26767 2.14467 3.68828 1.98165C4.00532 1.85886 4.48089 1.71277 5.35593 1.67255C6.30284 1.6302 6.58607 1.61962 8.98504 1.61962ZM8.98504 0C6.54591 0 6.23943 0.0105858 5.28196 0.0550459C4.3266 0.099506 3.67348 0.249824 3.10069 0.474242C2.51099 0.705011 2.01006 1.012 1.50913 1.51164C1.01031 2.01129 0.701723 2.51306 0.473451 3.10586C0.25152 3.67749 0.0993362 4.33169 0.05495 5.29076C0.0105638 6.24982 0 6.55681 0 9C0 11.4432 0.0105638 11.7502 0.05495 12.7092C0.0993362 13.6662 0.249406 14.3204 0.473451 14.8941C0.703836 15.4848 1.01031 15.9866 1.50913 16.4884C2.00794 16.988 2.50887 17.2971 3.10069 17.5258C3.67137 17.7481 4.32448 17.9005 5.28196 17.945C6.23943 17.9894 6.54591 18 8.98504 18C11.4242 18 11.7306 17.9894 12.6881 17.945C13.6435 17.9005 14.2966 17.7502 14.8694 17.5258C15.4591 17.295 15.96 16.988 16.4609 16.4884C16.9598 15.9887 17.2683 15.4869 17.4966 14.8941C17.7185 14.3225 17.8707 13.6683 17.9151 12.7092C17.9595 11.7502 17.9701 11.4432 17.9701 9C17.9701 6.55681 17.9595 6.24982 17.9151 5.29076C17.8707 4.3338 17.7207 3.67961 17.4966 3.10586C17.2662 2.51517 16.9598 2.01341 16.4609 1.51164C15.9621 1.012 15.4612 0.702894 14.8694 0.474242C14.2987 0.251941 13.6456 0.099506 12.6881 0.0550459C11.7306 0.00846864 11.4242 0 8.98504 0Z" fill="black"/>
<path d="M8.98499 4.37614C6.43806 4.37614 4.37305 6.4446 4.37305 8.99576C4.37305 11.5469 6.43806 13.6154 8.98499 13.6154C11.5319 13.6154 13.5969 11.5469 13.5969 8.99576C13.5969 6.4446 11.5319 4.37614 8.98499 4.37614ZM8.98499 11.9958C7.33213 11.9958 5.98997 10.6535 5.98997 8.99576C5.98997 7.33803 7.33001 5.99576 8.98499 5.99576C10.6378 5.99576 11.98 7.33803 11.98 8.99576C11.98 10.6535 10.6378 11.9958 8.98499 11.9958Z" fill="black"/>
<path d="M13.7811 5.27382C14.3764 5.27382 14.859 4.7904 14.859 4.19407C14.859 3.59775 14.3764 3.11433 13.7811 3.11433C13.1857 3.11433 12.7031 3.59775 12.7031 4.19407C12.7031 4.7904 13.1857 5.27382 13.7811 5.27382Z" fill="black"/>
</svg>
