<svg width="19" height="19" viewBox="0 0 19 19" fill="none" xmlns="http://www.w3.org/2000/svg">
<path d="M14.388 3.3042C13.8018 3.3042 13.2689 3.78379 13.2689 4.42326C13.2689 5.00943 13.7485 5.54232 14.388 5.54232C14.9741 5.54232 15.507 5.06272 15.507 4.42326C15.507 3.83708 14.9741 3.3042 14.388 3.3042Z" fill="white"/>
<path d="M9.48535 4.74268C6.9275 4.74268 4.84924 6.82092 4.84924 9.37877C4.84924 11.9366 6.9275 14.0149 9.48535 14.0149C12.0432 14.0149 14.1214 11.9366 14.1214 9.37877C14.1214 6.82092 12.0432 4.74268 9.48535 4.74268ZM9.48535 12.3629C7.8334 12.3629 6.50119 11.0307 6.50119 9.37877C6.50119 7.72683 7.8334 6.39462 9.48535 6.39462C11.1373 6.39462 12.4695 7.72683 12.4695 9.37877C12.4162 11.0307 11.084 12.3629 9.48535 12.3629Z" fill="white"/>
<path d="M13.1623 18.8108H5.64857C2.50455 18.8108 0 16.253 0 13.1623V5.64858C0 2.50456 2.55784 0 5.64857 0H13.1623C16.3063 0 18.8108 2.55785 18.8108 5.64858V13.1623C18.8108 16.253 16.253 18.8108 13.1623 18.8108ZM5.59529 1.75852C3.46375 1.75852 1.70523 3.51704 1.70523 5.64858V13.1623C1.70523 15.2938 3.46375 17.0523 5.59529 17.0523H13.109C15.2405 17.0523 16.999 15.2938 16.999 13.1623V5.64858C16.999 3.51704 15.2405 1.75852 13.109 1.75852H5.59529Z" fill="white"/>
</svg>
