<svg width="37" height="25" viewBox="0 0 37 25" fill="none" xmlns="http://www.w3.org/2000/svg">
<path d="M34.7006 14.5803H2.08397C0.931925 14.5803 0 13.6484 0 12.4963C0 11.3443 0.931925 10.4124 2.08397 10.4124H34.7006C35.8527 10.4124 36.7846 11.3443 36.7846 12.4963C36.7846 13.6484 35.8527 14.5803 34.7006 14.5803Z" fill="black"/>
<path d="M34.7006 4.16789H2.08397C0.931925 4.16789 0 3.23598 0 2.08394C0 0.931902 0.931925 0 2.08397 0H34.7006C35.8527 0 36.7846 0.931902 36.7846 2.08394C36.7846 3.23598 35.8527 4.16789 34.7006 4.16789Z" fill="black"/>
<path d="M34.7006 25H2.08397C0.931925 25 0 24.0681 0 22.9161C0 21.764 0.931925 20.8321 2.08397 20.8321H34.7006C35.8527 20.8321 36.7846 21.764 36.7846 22.9161C36.7846 24.0681 35.8527 25 34.7006 25Z" fill="black"/>
</svg>
