<svg width="15" height="19" viewBox="0 0 15 19" fill="none" xmlns="http://www.w3.org/2000/svg">
<path fill-rule="evenodd" clip-rule="evenodd" d="M6.29316 12.408C6.29316 12.4615 6.2384 12.515 6.2384 12.5684C5.52652 15.2957 5.47176 15.8839 4.70512 17.1673C4.37656 17.7555 3.93847 18.3437 3.55515 18.8785C3.50039 18.932 3.44564 19.0389 3.33612 18.9854C3.2266 18.9854 3.2266 18.8785 3.2266 18.7715C3.11708 17.9694 3.06232 17.1138 3.06232 16.2582C3.11708 15.1887 3.22659 14.8144 4.65035 8.87866C4.65035 8.77171 4.65036 8.71823 4.5956 8.61128C4.26704 7.70221 4.15751 6.79314 4.48607 5.83059C5.14319 3.79854 7.49788 3.63811 7.8812 5.34931C8.155 6.36533 7.44311 7.70221 6.95027 9.68078C6.51219 11.3385 8.48355 12.4615 10.1811 11.285C11.7144 10.1621 12.3168 7.54178 12.2072 5.67016C11.9882 1.92691 7.77168 1.12479 5.1432 2.35471C2.07664 3.74506 1.41952 7.43483 2.78852 9.09256C2.9528 9.30645 3.11708 9.41341 3.06232 9.68078C2.9528 10.0016 2.89804 10.376 2.78852 10.6968C2.73376 10.9642 2.51472 11.0177 2.24092 10.9107C1.74808 10.6968 1.31 10.376 0.981436 10.0016C-0.168525 8.61129 -0.497081 5.77711 1.0362 3.42421C2.73376 0.803939 5.96459 -0.265562 8.86687 0.0552876C12.3168 0.429612 14.5619 2.78251 14.9452 5.40279C15.1095 6.57923 15 9.57383 13.2477 11.6594C11.2763 14.0657 8.04548 14.2262 6.56696 12.7289C6.45744 12.6754 6.40268 12.5684 6.29316 12.408Z" fill="white"/>
</svg>
