<svg width="6" height="10" viewBox="0 0 6 10" fill="none" xmlns="http://www.w3.org/2000/svg">
<path d="M0.264298 1.53098L3.8013 5.00298L0.265298 8.47598C0.181454 8.55819 0.114848 8.65629 0.0693778 8.76456C0.0239081 8.87282 0.000488237 8.98906 0.000488242 9.10648C0.000488247 9.2239 0.0239081 9.34015 0.0693779 9.44841C0.114848 9.55667 0.181454 9.65477 0.265298 9.73698C0.437091 9.90435 0.667453 9.99802 0.907298 9.99802C1.14714 9.99802 1.37751 9.90435 1.5493 9.73698L5.7313 5.62998C5.81567 5.54797 5.88273 5.44987 5.92852 5.34149C5.97432 5.23311 5.99791 5.11664 5.99791 4.99898C5.99791 4.88132 5.97432 4.76486 5.92852 4.65647C5.88273 4.54809 5.81567 4.44999 5.7313 4.36798L1.5493 0.260982C1.37746 0.0933135 1.14688 -0.000538876 0.906798 -0.000538866C0.666712 -0.000538855 0.436136 0.0933135 0.264298 0.260983C0.0961234 0.429521 0.0016752 0.657891 0.00167521 0.895983C0.00167522 1.13407 0.0961235 1.36244 0.264298 1.53098Z" fill="#0C794D"/>
</svg>
