<svg width="25" height="25" viewBox="0 0 25 25" fill="none" xmlns="http://www.w3.org/2000/svg">
<path d="M10.4552 20.9118C13.0071 20.9118 15.3422 19.995 17.157 18.4713L23.4128 24.7275C23.5924 24.9071 23.834 25 24.0694 25C24.3047 25 24.5463 24.9071 24.7259 24.7275C25.0914 24.362 25.0914 23.7735 24.7259 23.4143L18.4701 17.1581C19.9876 15.3432 20.9105 13.0079 20.9105 10.4559C20.9105 4.68905 16.2217 0 10.4552 0C4.68876 0 0 4.68905 0 10.4559C0 16.2227 4.68876 20.9118 10.4552 20.9118ZM10.4552 1.85828C15.1936 1.85828 19.0523 5.7173 19.0523 10.4559C19.0523 15.1945 15.1936 19.0535 10.4552 19.0535C5.71694 19.0535 1.85816 15.1945 1.85816 10.4559C1.85816 5.7173 5.71694 1.85828 10.4552 1.85828Z" fill="#222222"/>
</svg>
