<svg width="17" height="19" viewBox="0 0 17 19" fill="none" xmlns="http://www.w3.org/2000/svg">
<path fill-rule="evenodd" clip-rule="evenodd" d="M11.9367 6.34131C13.2156 7.24722 14.7609 7.7801 16.4662 7.7801V5.22226C15.507 5.00911 14.7077 4.52951 14.0682 3.83676C13.0024 3.14401 12.2564 2.07824 11.99 0.799316H9.64526V13.6951C9.64526 15.1872 8.41962 16.4128 6.92754 16.4128C6.02164 16.4128 5.2756 15.9865 4.74271 15.3471C3.83681 14.9208 3.25063 13.9616 3.25063 12.8958C3.25063 11.4037 4.47627 10.1781 5.96835 10.1781C6.23479 10.1781 6.55452 10.2314 6.82096 10.2847V7.72682C3.57036 7.78011 0.959229 10.4445 0.959229 13.6951C0.959229 15.2938 1.5987 16.7859 2.66447 17.8516C3.62366 18.4911 4.74272 18.8641 5.96835 18.8641C9.27224 18.8641 11.9367 16.1997 11.9367 12.8958V6.34131Z" fill="white"/>
<path fill-rule="evenodd" clip-rule="evenodd" d="M16.4661 5.22227V4.52952C15.6135 4.52952 14.8142 4.31636 14.0682 3.83677C14.7076 4.58281 15.5069 5.06241 16.4661 5.22227ZM11.9899 0.799327C11.9899 0.69275 11.9366 0.532886 11.9366 0.426309V0H8.68602V12.8958C8.68602 14.3879 7.46039 15.6135 5.96831 15.6135C5.542 15.6135 5.11569 15.5069 4.74267 15.3471C5.22227 15.9865 6.0216 16.4129 6.9275 16.4129C8.41958 16.4129 9.64522 15.1872 9.64522 13.6951V0.799327H11.9899ZM6.76763 7.72683V7.03408C6.50119 6.98079 6.23475 6.98078 5.96831 6.98078C2.66442 6.98078 0 9.64522 0 12.9491C0 15.0274 1.06577 16.8392 2.66442 17.9049C1.59865 16.8392 0.959186 15.3471 0.959186 13.7484C0.959186 10.4445 3.57033 7.83341 6.76763 7.72683Z" fill="white"/>
</svg>
