<svg width="20" height="20" viewBox="0 0 20 20" fill="none" xmlns="http://www.w3.org/2000/svg">
<g clip-path="url(#clip0_480_222)">
<path d="M9.99984 4.16663C4.99984 4.16663 1.6665 9.99996 1.6665 9.99996C1.6665 9.99996 4.99984 15.8333 9.99984 15.8333C14.9998 15.8333 18.3332 9.99996 18.3332 9.99996C18.3332 9.99996 14.9998 4.16663 9.99984 4.16663ZM9.99984 15C6.28567 15 3.49067 11.2641 2.65067 9.99913C3.48859 8.73246 6.274 4.99996 9.99984 4.99996C13.714 4.99996 16.509 8.73579 17.349 10.0008C16.5111 11.2675 13.7257 15 9.99984 15Z" fill="#666666"/>
<path d="M9.99984 6.66663C8.159 6.66663 6.6665 8.15913 6.6665 9.99996C6.6665 11.8408 8.159 13.3333 9.99984 13.3333C11.8407 13.3333 13.3332 11.8408 13.3332 9.99996C13.3332 8.15913 11.8407 6.66663 9.99984 6.66663ZM9.99984 12.5C8.6215 12.5 7.49984 11.3783 7.49984 9.99996C7.49984 8.62163 8.6215 7.49996 9.99984 7.49996C11.3782 7.49996 12.4998 8.62163 12.4998 9.99996C12.4998 11.3783 11.3782 12.5 9.99984 12.5Z" fill="#666666"/>
</g>
<defs>
<clipPath id="clip0_480_222">
<rect width="20" height="20" fill="white"/>
</clipPath>
</defs>
</svg>
