<svg width="20" height="20" viewBox="0 0 20 20" fill="none" xmlns="http://www.w3.org/2000/svg">
<g clip-path="url(#clip0_519_7316)">
<path d="M10.0003 4.16666C5.00033 4.16666 1.66699 9.99999 1.66699 9.99999C1.66699 9.99999 5.00033 15.8333 10.0003 15.8333C15.0003 15.8333 18.3337 9.99999 18.3337 9.99999C18.3337 9.99999 15.0003 4.16666 10.0003 4.16666ZM10.0003 15C6.28616 15 3.49116 11.2642 2.65116 9.99916C3.48908 8.73249 6.27449 4.99999 10.0003 4.99999C13.7145 4.99999 16.5095 8.73582 17.3495 10.0008C16.5116 11.2675 13.7262 15 10.0003 15Z" fill="#444444"/>
<path d="M10.0003 6.66666C8.15949 6.66666 6.66699 8.15916 6.66699 9.99999C6.66699 11.8408 8.15949 13.3333 10.0003 13.3333C11.8412 13.3333 13.3337 11.8408 13.3337 9.99999C13.3337 8.15916 11.8412 6.66666 10.0003 6.66666ZM10.0003 12.5C8.62199 12.5 7.50033 11.3783 7.50033 9.99999C7.50033 8.62166 8.62199 7.49999 10.0003 7.49999C11.3787 7.49999 12.5003 8.62166 12.5003 9.99999C12.5003 11.3783 11.3787 12.5 10.0003 12.5Z" fill="#444444"/>
</g>
<defs>
<clipPath id="clip0_519_7316">
<rect width="20" height="20" fill="white"/>
</clipPath>
</defs>
</svg>
